<?xml version="1.0" encoding="utf-8"?>
<!-- Generator: Adobe Illustrator 23.0.2, SVG Export Plug-In . SVG Version: 6.00 Build 0)  -->
<svg version="1.1" id="weather-icon-clear" xmlns="http://www.w3.org/2000/svg" xmlns:xlink="http://www.w3.org/1999/xlink" x="0px"
	 y="0px" viewBox="0 0 64 64" style="enable-background:new 0 0 64 64;" xml:space="preserve">
<style type="text/css">
	.st0{fill:#FFFFFF;stroke:#FFFFFF;stroke-miterlimit:10;}
</style>
<path class="st0" d="M19.9,50.6l0.1,0.1C30.3,54,41.4,48.4,44.7,38s-2.3-21.4-12.6-24.7c-4.4-1.4-9.1-1.2-13.4,0.5
	c-0.3,0.1-0.5,0.5-0.3,0.8c0,0,0,0,0,0c0.1,0.2,0.2,0.3,0.4,0.4c9.6,3.1,14.9,13.5,11.8,23.1C28.9,43.3,25,47.4,20,49.5
	c-0.3,0.1-0.5,0.5-0.3,0.8C19.7,50.4,19.8,50.5,19.9,50.6L19.9,50.6z M22.1,49.9c9.6-4.9,13.4-16.7,8.5-26.4
	c-1.3-2.5-3.1-4.8-5.4-6.5c-1.4-1-2.9-1.9-4.5-2.6c9.7-3,19.9,2.5,22.9,12.2c3,9.7-2.5,19.9-12.2,22.9
	C28.4,50.4,25.2,50.5,22.1,49.9L22.1,49.9z"/>
</svg>
