<?xml version="1.0" encoding="utf-8"?>
<!-- Generator: Adobe Illustrator 23.0.2, SVG Export Plug-In . SVG Version: 6.00 Build 0)  -->
<svg version="1.1" id="weather-icon-partlycloudy" xmlns="http://www.w3.org/2000/svg" xmlns:xlink="http://www.w3.org/1999/xlink"
	 x="0px" y="0px" viewBox="0 0 64 64" style="enable-background:new 0 0 64 64;" xml:space="preserve">
<style type="text/css">
	.st0{fill:#FFFFFF;}
	.st1{fill:#FFFFFF;stroke:#FFFFFF;stroke-miterlimit:10;}
</style>
<path class="st0" d="M33.4,58.2h-20c-3.7,0-6.7-3-6.7-6.7c0-2.8,1.7-5.3,4.3-6.3c0.1-3.3,2.8-6,6.2-6c0.7,0,1.4,0.1,2,0.4
	c1.6-2.2,4.2-3.6,7-3.6c4.8,0,8.7,3.9,8.7,8.7c0,0.4,0,0.7-0.1,1.1c2.8,0.6,5,3.1,5,6.2C39.7,55.4,36.9,58.2,33.4,58.2z M17.1,41.9
	c-1.9,0-3.5,1.6-3.5,3.5c0,0.2,0,0.4,0.1,0.6l0.2,1.3l-1.3,0.3c-1.9,0.4-3.3,2.1-3.3,4c0,2.2,1.8,4.1,4.1,4.1h20
	c2,0,3.6-1.6,3.6-3.6s-1.6-3.6-3.6-3.6h-0.2l-2,0.1l0.6-1.9c0.2-0.6,0.3-1.2,0.3-1.9c0-3.3-2.7-6-6-6c-2.2,0-4.3,1.2-5.3,3.2
	l-0.7,1.3l-1.2-0.7C18.4,42.1,17.7,41.9,17.1,41.9z"/>
<path class="st1" d="M37.6,39l0.1,0.1c8.1,2.6,16.7-1.8,19.3-9.9s-1.8-16.7-9.9-19.3c-3.4-1.1-7.1-1-10.5,0.4
	c-0.3,0.1-0.4,0.4-0.3,0.6c0.1,0.1,0.2,0.2,0.3,0.3c7.5,2.4,11.7,10.5,9.2,18.1c-1.3,4-4.3,7.3-8.2,8.9c-0.3,0.1-0.4,0.4-0.3,0.7
	c0,0,0,0,0,0C37.5,38.8,37.5,38.9,37.6,39z M39.3,38.4c1.9-1,3.7-2.4,5-4.1c5.2-6.7,4.1-16.3-2.6-21.5c-1.1-0.8-2.3-1.5-3.5-2
	c7.6-2.4,15.6,1.9,17.9,9.4s-1.9,15.6-9.4,17.9C44.4,38.8,41.8,38.9,39.3,38.4L39.3,38.4z"/>
</svg>
