<?xml version="1.0" encoding="utf-8"?>
<!-- Generator: Adobe Illustrator 23.0.2, SVG Export Plug-In . SVG Version: 6.00 Build 0)  -->
<svg version="1.1" id="weather-icon-partlycloudy" xmlns="http://www.w3.org/2000/svg" xmlns:xlink="http://www.w3.org/1999/xlink"
	 x="0px" y="0px" viewBox="0 0 64 64" style="enable-background:new 0 0 64 64;" xml:space="preserve">
<style type="text/css">
	.st0{fill:none;}
	.st1{fill:#FFFFFF;}
	.st2{fill:#FFFFFF;stroke:#FFFFFF;stroke-miterlimit:10;}
</style>
<g>
	<g>
		<path class="st0" d="M34.2,40h-0.2l-2.2,0.1l0.7-2.1c0.2-0.7,0.3-1.3,0.3-2.1c0-3.7-3-6.7-6.7-6.7c-2.5,0-4.8,1.3-6,3.6l-0.8,1.5
			l-1.3-0.8c-0.6-0.6-1.3-0.8-2-0.8c-2.1,0-3.9,1.8-3.9,3.9c0,0.2,0,0.4,0.1,0.7l0.2,1.5L10.8,39c-2.1,0.4-3.7,2.4-3.7,4.5
			c0,2.5,2,4.6,4.6,4.6h22.5c2.2,0,4-1.8,4-4S36.4,40,34.2,40z"/>
		<path class="st1" d="M35.7,37c0.1-0.4,0.1-0.8,0.1-1.2c0-5.4-4.4-9.8-9.8-9.8c-3.1,0-6.1,1.6-7.9,4c-0.7-0.3-1.5-0.4-2.2-0.4
			c-3.8,0-6.9,3-7,6.7c-2.9,1.1-4.8,3.9-4.8,7.1c0,4.2,3.4,7.5,7.5,7.5h22.5c3.9,0,7.1-3.1,7.2-7C41.4,40.5,38.9,37.6,35.7,37z
			 M34.2,48.1H11.7c-2.6,0-4.6-2.1-4.6-4.6c0-2.1,1.6-4,3.7-4.5l1.5-0.3L12,37.2c-0.1-0.2-0.1-0.4-0.1-0.7c0-2.1,1.8-3.9,3.9-3.9
			c0.7,0,1.5,0.2,2,0.8l1.3,0.8l0.8-1.5c1.1-2.2,3.5-3.6,6-3.6c3.7,0,6.7,3,6.7,6.7c0,0.8-0.1,1.5-0.3,2.1l-0.7,2.1l2.2-0.1h0.2
			c2.2,0,4,1.8,4,4S36.4,48.1,34.2,48.1z"/>
	</g>
	<path class="st2" d="M59.5,30.3c-0.1,0-0.3,0-0.4,0c-6.7,4.2-15.6,2.2-19.8-4.5c-2.2-3.6-2.8-8-1.6-12c0.1-0.3-0.1-0.6-0.3-0.7
		c-0.1,0.2-0.1,0.2-0.3,0.2l-0.1,0c-4,2.5-6.4,6.6-7,10.9c0.4,0.1,0.7,0.3,1,0.4c0.2-1.3,0.5-2.5,1-3.7c0.9-2.2,2.5-4.3,4.5-5.9
		c-0.5,2.1-0.5,4.4-0.1,6.5c1.8,8.3,9.9,13.6,18.2,11.8c1.3-0.3,2.6-0.8,3.8-1.4c-2.5,6.2-8.9,9.6-15.2,8.7c0.2,0.3,0.3,0.7,0.4,1
		c3.3,0.3,6.7-0.4,9.7-2.3c3-1.9,5.3-4.8,6.4-8.3C59.9,30.6,59.8,30.3,59.5,30.3z"/>
</g>
</svg>
