<?xml version="1.0" encoding="utf-8"?>
<!-- Generator: Adobe Illustrator 23.0.2, SVG Export Plug-In . SVG Version: 6.00 Build 0)  -->
<svg version="1.1" id="weather-icon-fog" xmlns="http://www.w3.org/2000/svg" xmlns:xlink="http://www.w3.org/1999/xlink" x="0px"
	 y="0px" viewBox="0 0 64 64" style="enable-background:new 0 0 64 64;" xml:space="preserve">
<style type="text/css">
	.st0{fill:#FFFFFF;}
</style>
<g>
	<path class="st0" d="M32,53.1c-0.4,0-0.8-0.1-1.1-0.4l-5.6-5.6h-16c-0.8,0-1.5-0.7-1.5-1.5s0.7-1.5,1.5-1.5H26
		c0.4,0,0.8,0.2,1.1,0.4l5,5l5-5c0.3-0.3,0.7-0.4,1.1-0.4h16.6c0.8,0,1.5,0.7,1.5,1.5s-0.7,1.5-1.5,1.5h-16l-5.6,5.6
		C32.8,53,32.4,53.1,32,53.1z"/>
	<path class="st0" d="M44.8,41c-0.2,0-0.3,0-0.5-0.1c-0.8-0.3-1.2-1.1-0.9-1.9c0.5-1.3,0.7-2.6,0.7-4C44.1,28.4,38.7,23,32,23
		S19.9,28.4,19.9,35c0,1.4,0.2,2.7,0.7,4c0.3,0.8-0.1,1.6-0.9,1.9c-0.8,0.3-1.6-0.1-1.9-0.9c-0.6-1.6-0.9-3.3-0.9-5
		c0-8.3,6.8-15.1,15.1-15.1S47.1,26.7,47.1,35c0,1.7-0.3,3.4-0.9,5C46,40.7,45.4,41,44.8,41z"/>
	<path class="st0" d="M32,16.9c-0.8,0-1.5-0.7-1.5-1.5v-3c0-0.8,0.7-1.5,1.5-1.5s1.5,0.7,1.5,1.5v3C33.5,16.2,32.8,16.9,32,16.9z"/>
	<path class="st0" d="M12.4,36.5h-3c-0.8,0-1.5-0.7-1.5-1.5s0.7-1.5,1.5-1.5h3c0.8,0,1.5,0.7,1.5,1.5S13.2,36.5,12.4,36.5z"/>
	<path class="st0" d="M54.6,36.5h-3c-0.8,0-1.5-0.7-1.5-1.5s0.7-1.5,1.5-1.5h3c0.8,0,1.5,0.7,1.5,1.5S55.5,36.5,54.6,36.5z"/>
	<path class="st0" d="M18.1,22.7c-0.4,0-0.8-0.1-1.1-0.4l-2.1-2.1c-0.6-0.6-0.6-1.5,0-2.1c0.6-0.6,1.5-0.6,2.1,0l2.1,2.1
		c0.6,0.6,0.6,1.5,0,2.1C18.9,22.5,18.5,22.7,18.1,22.7z"/>
	<path class="st0" d="M45.9,22.7c-0.4,0-0.8-0.1-1.1-0.4c-0.6-0.6-0.6-1.5,0-2.1l2.1-2.1c0.6-0.6,1.5-0.6,2.1,0
		c0.6,0.6,0.6,1.5,0,2.1l-2.1,2.1C46.6,22.5,46.2,22.7,45.9,22.7z"/>
</g>
</svg>
