<?xml version="1.0" encoding="utf-8"?>
<!-- Generator: Adobe Illustrator 23.0.2, SVG Export Plug-In . SVG Version: 6.00 Build 0)  -->
<svg version="1.1" id="weather-icon-fog" xmlns="http://www.w3.org/2000/svg" xmlns:xlink="http://www.w3.org/1999/xlink" x="0px"
	 y="0px" viewBox="0 0 64 64" style="enable-background:new 0 0 64 64;" xml:space="preserve">
<style type="text/css">
	.st0{fill:#FFFFFF;}
</style>
<g>
	<path class="st0" d="M54.9,44.5H26.4L28,43l-2.4-2.4l-1.7,1.7l-8.6-8.5l-2.4,2.4l8.4,8.4h-12c-0.9,0-1.7,0.8-1.7,1.7S8.2,48,9.1,48
		h45.7c0.9,0,1.7-0.8,1.7-1.7C56.6,45.3,55.8,44.5,54.9,44.5z"/>
	
		<rect x="27.4" y="36.4" transform="matrix(0.7076 -0.7066 0.7066 0.7076 -18.0756 32.6014)" class="st0" width="5.8" height="3.4"/>
	
		<rect x="33.2" y="30.7" transform="matrix(0.7071 -0.7071 0.7071 0.7071 -12.3546 35.0381)" class="st0" width="5.8" height="3.4"/>
	<rect x="38.9" y="25" transform="matrix(0.7071 -0.7071 0.7071 0.7071 -6.6158 37.4041)" class="st0" width="5.8" height="3.4"/>
	<polygon class="st0" points="44.3,21.8 46.7,24.3 49,21.9 49,27.2 52.5,27.2 52.5,16 41.3,16 41.3,19.5 46.6,19.5 	"/>
</g>
</svg>
