<svg xmlns="http://www.w3.org/2000/svg" viewBox="0 0 64 64"><defs><style>.a{fill:#fff;}</style></defs><title>ww-info</title><path class="a" d="M32,0A32,32,0,1,0,64,32,32,32,0,0,0,32,0Zm-.36,53.9a4,4,0,0,1,0-8,4,4,0,1,1,0,8Zm6.27-23c-.58.59-1.15,1.16-1.69,1.76-1.72,1.91-1.85,3.15-1.85,6.48a2.79,2.79,0,1,1-5.58,0c0-4,.22-6.8,3.28-10.2.59-.67,1.24-1.31,1.89-2,2.48-2.5,4-4.18,3.88-6.43-.11-2.42-1.5-4-4.12-4.72a6.7,6.7,0,0,0-6.35,1.85,5.54,5.54,0,0,0-1.22,3.71,2.78,2.78,0,1,1-5.55.35A11,11,0,0,1,23.24,14a12.19,12.19,0,0,1,11.93-3.5c4.93,1.34,8,5,8.24,9.86S40.45,28.38,37.91,30.94Z"/></svg>