<?xml version="1.0" encoding="utf-8"?>
<!-- Generator: Adobe Illustrator 23.0.2, SVG Export Plug-In . SVG Version: 6.00 Build 0)  -->
<svg version="1.1" id="weather-icon-hazy" xmlns="http://www.w3.org/2000/svg" xmlns:xlink="http://www.w3.org/1999/xlink" x="0px"
	 y="0px" viewBox="0 0 64 64" style="enable-background:new 0 0 64 64;" xml:space="preserve">
<style type="text/css">
	.st0{fill:#FFFFFF;}
</style>
<path class="st0" d="M32.2,17.8c-2.2,0-4,1.7-4,3.8c0,2.1,1.8,3.8,4,3.8c2.2,0,4-1.7,4-3.8C36.2,19.5,34.4,17.8,32.2,17.8
	 M32.2,28.2c-3.9,0-7-3-7-6.7c0-3.7,3.1-6.6,7-6.6c3.9,0,7,3,7,6.6C39.2,25.2,36.1,28.2,32.2,28.2 M32.3,6.4l-0.3,0
	c-1.3,0-12.6,0.6-15.8,12.2c0,0.1-0.7,4.6,1.9,10.2c1.6,2.8,3.5,6.2,3.9,6.7c0.3,0.4,6.6,9.4,9.8,17.9c3.3-8.6,9.8-17.5,10.1-17.9
	c0.4-0.5,2.4-3.9,4-6.8c2.6-5.6,1.8-10.1,1.8-10.2C44.8,7.7,34.2,6.5,32.3,6.4 M31.8,60.5l-0.1-0.3c-0.7,0-1.3-0.5-1.4-1.2
	c-1.9-9.1-10.7-21.7-10.8-21.8c-0.6-0.8-3.8-6.5-4.1-7.1c-3.1-6.7-2.1-11.8-2.1-12.1C16.8,5.2,28.6,3.8,31.5,3.6l0,0l0.4,0
	c0.1,0,14.9,0.2,18.7,14.5c0.1,0.3,1,5.4-2.1,12c-0.1,0.1-3.5,6.3-4.2,7.2C44.3,37.4,35.1,50,33.3,59c-0.1,0.6-0.7,1.1-1.4,1.2
	L31.8,60.5z"/>
</svg>
