<svg xmlns="http://www.w3.org/2000/svg" viewBox="0 0 250 250"><defs><style>.a{fill:#fff;}</style></defs><title>ww-warning</title><path class="a" d="M37.46,46.72a5.61,5.61,0,0,1,0-7.83L65.36,10.4a5.35,5.35,0,0,1,7.67,0l22.51,23a2.18,2.18,0,0,0,3.11,0l22.51-23a5.36,5.36,0,0,1,7.68,0l22.51,23a2.17,2.17,0,0,0,3.1,0L177,10.4a5.35,5.35,0,0,1,7.67,0l14,14.25a5.61,5.61,0,0,1,0,7.83L156.74,75.2a5.36,5.36,0,0,1-7.68,0l-22.51-23a2.17,2.17,0,0,0-3.1,0l-22.52,23a5.35,5.35,0,0,1-7.67,0L65.57,46.94a5.84,5.84,0,0,1-.41-7.84A5.35,5.35,0,0,1,73,38.89l22.51,23a2.18,2.18,0,0,0,3.11,0l22.51-23a5.36,5.36,0,0,1,7.68,0l22.51,23a2.17,2.17,0,0,0,3.1,0l31.08-31.72a2.27,2.27,0,0,0,0-3.17l-3.17-3.24a2.16,2.16,0,0,0-3.11,0l-22.51,23a5.36,5.36,0,0,1-7.68,0l-22.51-23a2.15,2.15,0,0,0-3.1,0l-22.52,23a5.35,5.35,0,0,1-7.67,0l-22.51-23a2.16,2.16,0,0,0-3.11,0L50.52,41.22a2.27,2.27,0,0,0,0,3.17l45,46a2.16,2.16,0,0,0,3.11,0l22.51-23a5.36,5.36,0,0,1,7.68,0l22.51,23a2.15,2.15,0,0,0,3.1,0l50.42-51.46a5.35,5.35,0,0,1,7.67,0,5.61,5.61,0,0,1,0,7.83l-55.8,57a5.36,5.36,0,0,1-7.68,0l-22.51-23a2.17,2.17,0,0,0-3.1,0l-22.52,23a5.35,5.35,0,0,1-7.67,0ZM201.91,156.28V132.36H194.6v23.92Zm-147-21.05v-2.54H42.58v23.59H54.94v-2.54H45.58v-8.11H54V143.1H45.58v-7.87Zm23.13,21.05H74.91L73.06,151h-10l-1.85,5.24H58l8.3-23.42H69.8Zm-5.86-7.74-4.15-11.89L63.9,148.54Zm-53.82,7.74,5.54-19,5.34,19h3.36l6.66-23.55H36.06L31,152.63l-5.27-19.9H22.38l-5.53,20-5-20H8.64l6.43,23.58Zm223-17.94v-6H225.8v23.92h15.56v-6h-8.24v-3.38h7.25v-5.64h-7.25v-2.94Zm-49.4-6h-7.87L182,147.42l-3.17-15.06h-8l-3.17,15.06-2.1-15.06h-7.88L163,156.28h9.09l2.7-13.59,2.71,13.59h9.09ZM102.53,145.6h11.7v10.68h3V132.73h-3v10.34h-11.7V132.73h-3v23.55h3Zm43.3,1.05H142.2v9.63h-3V132.73h7.42c5.4,0,8,3.07,8,6.92a6.6,6.6,0,0,1-5.47,6.76l5.77,9.87H151.3Zm-3.63-2.47h4.42c3.39,0,4.87-1.89,4.87-4.53s-1.44-4.39-4.87-4.39H142.2Zm-7.54,9.56H125.3v-8.11h8.37V143.1H125.3v-7.87h9.36v-2.54H122.3v23.59h12.36Zm69.89-14.49c-.13,8.17,10.87,7,10.91,10.24,0,.84-.7,1.18-1.42,1.18s-1.65-.31-1.78-2.06h-7.77c.32,5.37,4.51,7.9,9.85,7.9,5.63,0,8.89-3.24,8.89-7.63,0-7.37-10.84-6.86-10.84-9.87,0-.81.46-1.21,1.06-1.21.79,0,1.55.43,1.61,1.89h7.88c-.2-5-3.82-7.74-9.46-7.74C208.5,132,204.55,134.45,204.55,139.25Zm-115,17V135.23h6.26v-2.5H80.28v2.5h6.3v21.05ZM11.89,196H10.33V184.18H14.2c2.83,0,4.15,1.53,4.15,3.47s-1.17,3.43-4.15,3.43H11.89Zm0-6.22H14.2c1.79,0,2.55-.84,2.55-2.16s-.76-2.19-2.55-2.19H11.89Zm10-6.36H20.3V196h1.56ZM33.09,192H25.55a2.94,2.94,0,0,0,3.07,2.92,2.6,2.6,0,0,0,2.65-1.71H33a4.24,4.24,0,0,1-4.34,3A4.52,4.52,0,0,1,24,191.35a4.46,4.46,0,0,1,4.67-4.79A4.31,4.31,0,0,1,33.15,191,7.19,7.19,0,0,1,33.09,192Zm-1.56-1.26a2.76,2.76,0,0,0-3-2.82,2.9,2.9,0,0,0-3,2.82ZM42.62,196V194.3a4,4,0,0,1-3.54,1.88,4.5,4.5,0,0,1-4.46-4.84,4.44,4.44,0,0,1,4.48-4.78,4,4,0,0,1,3.52,1.85v-1.69H44.2V196Zm0-4.68a3.22,3.22,0,0,0-3.21-3.45,3.16,3.16,0,0,0-3.18,3.44,3.21,3.21,0,1,0,6.39,0Zm11,2.15c-.07-3.33-5.55-2.13-5.55-4.34,0-.75.69-1.29,1.84-1.29a1.81,1.81,0,0,1,2,1.62h1.57c-.1-1.82-1.48-2.93-3.57-2.93s-3.46,1.17-3.46,2.6c0,3.47,5.58,2.26,5.58,4.34,0,.76-.69,1.37-1.93,1.37S48,194.19,48,193.29H46.33c.11,1.7,1.66,2.89,3.86,2.89S53.64,195,53.64,193.5ZM64.4,192H56.85a3,3,0,0,0,3.07,2.92,2.59,2.59,0,0,0,2.65-1.71h1.69a4.23,4.23,0,0,1-4.34,3,4.52,4.52,0,0,1-4.67-4.83,4.46,4.46,0,0,1,4.67-4.79A4.3,4.3,0,0,1,64.45,191C64.45,191.35,64.43,191.63,64.4,192Zm-1.57-1.26a2.75,2.75,0,0,0-3-2.82,2.91,2.91,0,0,0-3,2.82Zm12.9-2.55v-1.59a3.18,3.18,0,0,0-3,1.68v-1.51H71.11V196h1.57V191c0-2.15,1.14-2.82,2.64-2.82ZM86.1,192H78.55a3,3,0,0,0,3.07,2.92,2.59,2.59,0,0,0,2.65-1.71H86a4.23,4.23,0,0,1-4.34,3A4.52,4.52,0,0,1,77,191.35a4.46,4.46,0,0,1,4.67-4.79A4.3,4.3,0,0,1,86.15,191C86.15,191.35,86.13,191.63,86.1,192Zm-1.57-1.26a2.75,2.75,0,0,0-3-2.82,2.91,2.91,0,0,0-3,2.82ZM95,193.5c-.07-3.33-5.55-2.13-5.55-4.34,0-.75.69-1.29,1.84-1.29s2,.68,2,1.62h1.57c-.1-1.82-1.48-2.93-3.56-2.93s-3.47,1.17-3.47,2.6c0,3.47,5.59,2.26,5.59,4.34,0,.76-.69,1.37-1.93,1.37s-2.14-.68-2.23-1.58H87.69c.11,1.7,1.66,2.89,3.86,2.89S95,195,95,193.5Zm3-8.3a1.06,1.06,0,0,0,0-2.11,1.06,1.06,0,1,0,0,2.11Zm.76,1.52H97.2V196h1.57Zm8.47,8h-4.63l4.6-6.79v-1.25h-6.36V188h4.55l-4.58,6.79V196h6.42ZM117.83,192h-7.54a2.94,2.94,0,0,0,3.06,2.92,2.6,2.6,0,0,0,2.66-1.71h1.68a4.23,4.23,0,0,1-4.34,3,4.51,4.51,0,0,1-4.66-4.83,4.45,4.45,0,0,1,4.66-4.79,4.3,4.3,0,0,1,4.53,4.45A7.21,7.21,0,0,1,117.83,192Zm-1.56-1.26a2.76,2.76,0,0,0-3-2.82,2.91,2.91,0,0,0-3,2.82ZM127,200.42l5.69-13.7h-1.62l-2.93,7.54-3-7.54h-1.75l3.81,9.21-1.86,4.49Zm6.66-9.07a4.78,4.78,0,1,1,9.55,0,4.65,4.65,0,0,1-4.84,4.83A4.56,4.56,0,0,1,133.65,191.35Zm1.61,0c0,2.37,1.46,3.47,3.1,3.47a3.47,3.47,0,0,0,0-6.92A3.1,3.1,0,0,0,135.26,191.35ZM153.63,196v-9.31h-1.56v5.11c0,2-1.09,3-2.71,3a2.52,2.52,0,0,1-2.64-2.85v-5.25h-1.55v5.45a3.66,3.66,0,0,0,3.88,4,3.5,3.5,0,0,0,3-1.52V196Zm2.65-9.31V196h1.57V191c0-2.15,1.14-2.82,2.63-2.82h.42v-1.59a3.18,3.18,0,0,0-3.05,1.68v-1.51Zm20.6,4.62a4.51,4.51,0,0,1-4.48,4.84,4,4,0,0,1-3.53-1.87V196H167.3V183.45h1.57v5a4,4,0,0,1,3.53-1.89A4.43,4.43,0,0,1,176.88,191.34Zm-1.6,0a3.17,3.17,0,0,0-3.21-3.44,3.47,3.47,0,1,0,3.21,3.44Zm3.66-4.62V196h1.57V191c0-2.15,1.14-2.82,2.64-2.82h.41v-1.59a3.18,3.18,0,0,0-3.05,1.68v-1.51Zm10.54,9.46a4.81,4.81,0,1,1,4.84-4.83A4.65,4.65,0,0,1,189.48,196.18Zm3.24-4.83a3.15,3.15,0,0,0-3.19-3.45,3.11,3.11,0,0,0-3.15,3.45c0,2.37,1.47,3.47,3.1,3.47A3.18,3.18,0,0,0,192.72,191.35ZM206,196l2.94-9.31h-1.55l-2.13,7.83-2.3-7.83h-1.6L199,194.53l-2.17-7.81h-1.6l3,9.31h1.62l2.27-7.39L204.4,196Zm5.73-6.87c0-.75.69-1.29,1.84-1.29a1.81,1.81,0,0,1,2,1.62h1.57c-.11-1.82-1.48-2.93-3.57-2.93s-3.46,1.17-3.46,2.6c0,3.47,5.58,2.26,5.58,4.34,0,.76-.69,1.37-1.93,1.37s-2.13-.68-2.22-1.58H210c.1,1.7,1.65,2.89,3.86,2.89s3.44-1.15,3.44-2.68C217.23,190.17,211.75,191.37,211.75,189.16ZM228.11,191c0,.34,0,.62-.05.94h-7.55a3,3,0,0,0,3.07,2.92,2.59,2.59,0,0,0,2.65-1.71h1.69a4.23,4.23,0,0,1-4.34,3,4.52,4.52,0,0,1-4.67-4.83,4.46,4.46,0,0,1,4.67-4.79A4.3,4.3,0,0,1,228.11,191Zm-1.62-.32a2.75,2.75,0,0,0-3-2.82,2.91,2.91,0,0,0-3,2.82Zm3.68-4V196h1.57V191c0-2.15,1.14-2.82,2.64-2.82h.41v-1.59a3.18,3.18,0,0,0-3,1.68v-1.51Zm-218,29.71h1.62l2.27-7.4,2.28,7.4H20l2.94-9.32H21.35L19.22,215l-2.3-7.84h-1.6L13,214.93l-2.17-7.82H9.21Zm12.28,0H26v-9.32H24.45Zm.81-12.94a1.06,1.06,0,1,0,0,2.11,1.06,1.06,0,0,0,0-2.11Zm7.7,4.8c1.58,0,2.63,1,2.63,2.87v5.27h1.55v-5.49a3.64,3.64,0,0,0-3.86-4,3.51,3.51,0,0,0-3,1.5v-1.33H28.68v9.32h1.57v-5.15C30.25,209.27,31.35,208.29,33,208.29Zm14.15-4.44H48.7v12.58H47.11v-1.75a3.88,3.88,0,0,1-3.51,1.9,4.5,4.5,0,0,1-4.48-4.84A4.44,4.44,0,0,1,43.61,207a4.12,4.12,0,0,1,3.5,1.82Zm0,7.9a3.21,3.21,0,0,0-3.2-3.45,3.16,3.16,0,0,0-3.19,3.44,3.21,3.21,0,1,0,6.39,0Zm8.35,4.83a4.81,4.81,0,1,1,4.84-4.83A4.65,4.65,0,0,1,55.46,216.58Zm0-1.36a3.47,3.47,0,0,0,0-6.92,3.11,3.11,0,0,0-3.15,3.45C52.36,214.12,53.83,215.22,55.46,215.22Zm10.37,1.21L68.1,209l2.28,7.4H72l2.94-9.32H73.39L71.25,215,69,207.11h-1.6L65,214.93l-2.17-7.82h-1.6l3,9.32Zm14.67-4.68a4.77,4.77,0,1,1,9.54,0,4.65,4.65,0,0,1-4.84,4.83A4.55,4.55,0,0,1,80.5,211.75Zm1.6,0c0,2.37,1.46,3.47,3.1,3.47a3.47,3.47,0,0,0,0-6.92A3.11,3.11,0,0,0,82.1,211.75Zm11.57-3.12v-1.52H92.1v9.32h1.57v-5.07c0-2.16,1.14-2.82,2.64-2.82h.41v-1.6A3.19,3.19,0,0,0,93.67,208.63Zm13,6.37-3-7.89H102l3.7,9.32h1.83l3.7-9.32h-1.67Zm6.15,1.43h1.56v-9.32h-1.56Zm.81-12.94a1.06,1.06,0,1,0,1,1.06A1,1,0,0,0,113.6,203.49Zm2.84,8.26A4.45,4.45,0,0,1,121.1,207a4.29,4.29,0,0,1,4.53,4.45,7.21,7.21,0,0,1,0,.94H118a2.94,2.94,0,0,0,3.06,2.92,2.6,2.6,0,0,0,2.66-1.71h1.69a4.25,4.25,0,0,1-4.35,3A4.51,4.51,0,0,1,116.44,211.75Zm1.62-.66h6a2.76,2.76,0,0,0-3-2.82A2.9,2.9,0,0,0,118.06,211.09Zm13.1,5.34,2.27-7.4,2.28,7.4h1.62l2.94-9.32h-1.55L136.59,215l-2.3-7.84h-1.6l-2.34,7.82-2.17-7.82h-1.6l3,9.32Zm15.6-11.66v2.34h-1.22v1.28h1.22v5.49c0,1.87,1,2.55,2.62,2.55h1.41v-1.31h-1.15c-1,0-1.31-.32-1.31-1.24v-5.49h2.46v-1.28h-2.46v-2.34Zm7.49,6.51c0-2,1.1-3,2.71-3s2.63,1,2.63,2.87v5.27h1.55v-5.49c0-2.67-1.67-4-3.77-4a3.56,3.56,0,0,0-3.12,1.52v-4.61h-1.57v12.58h1.57Zm18,1.07h-7.55a3,3,0,0,0,3.07,2.92,2.59,2.59,0,0,0,2.65-1.71h1.69a4.23,4.23,0,0,1-4.34,3,4.52,4.52,0,0,1-4.67-4.83,4.46,4.46,0,0,1,4.67-4.79,4.29,4.29,0,0,1,4.53,4.45C172.32,211.75,172.3,212,172.27,212.35Zm-1.57-1.26a2.75,2.75,0,0,0-3-2.82,2.91,2.91,0,0,0-3,2.82Zm15.69-4H188v9.32h-1.58V214.7a4,4,0,0,1-3.54,1.88,4.5,4.5,0,0,1-4.46-4.84,4.44,4.44,0,0,1,4.48-4.78,4,4,0,0,1,3.52,1.85Zm0,4.64a3.22,3.22,0,0,0-3.21-3.45,3.16,3.16,0,0,0-3.18,3.44,3.21,3.21,0,1,0,6.39,0Zm13.81,0a4.51,4.51,0,0,1-4.48,4.84,4.09,4.09,0,0,1-3.53-1.87v6.14h-1.57V207.11h1.57v1.72a4,4,0,0,1,3.53-1.87A4.44,4.44,0,0,1,200.2,211.74Zm-1.6,0a3.17,3.17,0,0,0-3.21-3.44,3.47,3.47,0,1,0,3.21,3.44Zm13.24,0a4.51,4.51,0,0,1-4.48,4.84,4.09,4.09,0,0,1-3.53-1.87v6.14h-1.57V207.11h1.57v1.72a4,4,0,0,1,3.53-1.87A4.44,4.44,0,0,1,211.84,211.74Zm-1.6,0A3.17,3.17,0,0,0,207,208.3a3.47,3.47,0,1,0,3.21,3.44Zm17.22,0a4.65,4.65,0,0,1-4.84,4.83,4.81,4.81,0,1,1,4.84-4.83Zm-1.61,0a3.15,3.15,0,0,0-3.18-3.45,3.11,3.11,0,0,0-3.16,3.45c0,2.37,1.47,3.47,3.11,3.47A3.18,3.18,0,0,0,225.85,211.75Zm8.27-4.81a3.49,3.49,0,0,0-3,1.5v-1.33h-1.57v9.32h1.57v-5.15c0-2,1.1-3,2.7-3s2.64,1,2.64,2.87v5.27H238v-5.49A3.64,3.64,0,0,0,234.12,206.94ZM13.91,235.06l-3-7.55H9.21l3.8,9.22-1.86,4.49h1.62l5.69-13.71H16.84ZM29,232.15A4.65,4.65,0,0,1,24.14,237a4.81,4.81,0,0,1,.07-9.62A4.57,4.57,0,0,1,29,232.15Zm-1.6,0a3.15,3.15,0,0,0-3.19-3.45A3.11,3.11,0,0,0,21,232.15c0,2.37,1.46,3.47,3.1,3.47A3.18,3.18,0,0,0,27.38,232.15Zm10.47.48c0,2-1.09,3-2.71,3s-2.63-1-2.63-2.85v-5.26H31V233a3.66,3.66,0,0,0,3.87,4,3.5,3.5,0,0,0,3-1.52v1.38h1.56v-9.32H37.85Zm5.78-3.6v-1.52H42.06v9.32h1.57v-5.07c0-2.16,1.14-2.82,2.64-2.82h.41v-1.6A3.19,3.19,0,0,0,43.63,229Zm20.81-1.69a3.52,3.52,0,0,0-3.35,2.08,3.55,3.55,0,0,0-3.46-2.08,3.42,3.42,0,0,0-3,1.52v-1.35H53.08v9.32h1.57V231.7c0-2,1.09-3,2.67-3s2.59,1,2.59,2.87v5.27h1.55V231.7c0-2,1.08-3,2.67-3s2.58,1,2.58,2.87v5.27h1.55v-5.49A3.63,3.63,0,0,0,64.44,227.34Zm15.34,4.81A4.65,4.65,0,0,1,74.94,237a4.81,4.81,0,1,1,4.84-4.83Zm-1.6,0A3.15,3.15,0,0,0,75,228.7a3.11,3.11,0,0,0-3.15,3.45c0,2.37,1.46,3.47,3.1,3.47A3.18,3.18,0,0,0,78.18,232.15Zm13.24,0A4.51,4.51,0,0,1,86.94,237a4,4,0,0,1-3.53-1.87v1.72H81.84V224.25h1.57v5a4,4,0,0,1,3.53-1.89A4.43,4.43,0,0,1,91.42,232.14Zm-1.6,0a3.17,3.17,0,0,0-3.21-3.44,3.47,3.47,0,1,0,3.21,3.44Zm4.47-8.25a1.06,1.06,0,1,0,1,1.06A1.05,1.05,0,0,0,94.29,223.89Zm-.81,12.94h1.57v-9.32H93.48Zm4.24,0h1.57V224.25H97.72Zm12.85-5c0,.34,0,.62,0,.94H103a2.94,2.94,0,0,0,3.07,2.92,2.59,2.59,0,0,0,2.65-1.71h1.69a4.23,4.23,0,0,1-4.34,3,4.52,4.52,0,0,1-4.67-4.83,4.46,4.46,0,0,1,4.67-4.79A4.29,4.29,0,0,1,110.57,231.81Zm-1.62-.32a2.75,2.75,0,0,0-3-2.82,2.9,2.9,0,0,0-3,2.82Zm15.69-7.24h1.58v12.58h-1.58v-1.75a3.89,3.89,0,0,1-3.52,1.9,4.51,4.51,0,0,1-4.48-4.84,4.45,4.45,0,0,1,4.5-4.78,4.15,4.15,0,0,1,3.5,1.82Zm0,7.9a3.22,3.22,0,0,0-3.21-3.45,3.17,3.17,0,0,0-3.19,3.44,3.21,3.21,0,1,0,6.4,0Zm12.84-.34c0,.34,0,.62,0,.94h-7.55a3,3,0,0,0,3.07,2.92A2.59,2.59,0,0,0,135.6,234h1.69a4.23,4.23,0,0,1-4.34,3,4.52,4.52,0,0,1-4.67-4.83,4.46,4.46,0,0,1,4.67-4.79A4.29,4.29,0,0,1,137.48,231.81Zm-1.62-.32a2.75,2.75,0,0,0-3-2.82,2.91,2.91,0,0,0-3,2.82Zm7.2,3.91-2.95-7.89h-1.69l3.71,9.32H144l3.7-9.32H146ZM150,223.89a1.06,1.06,0,1,0,1,1.06A1,1,0,0,0,150,223.89Zm-.8,12.94h1.56v-9.32h-1.56Zm8.24-8.16a2.57,2.57,0,0,1,2.68,1.84h1.68a4.09,4.09,0,0,0-4.36-3.15,4.81,4.81,0,0,0,0,9.62,4.19,4.19,0,0,0,4.36-3.14h-1.68a2.54,2.54,0,0,1-2.68,1.83c-1.72,0-3-1.2-3-3.52S155.73,228.67,157.45,228.67Zm15.06,3.14c0,.34,0,.62,0,.94h-7.55a2.94,2.94,0,0,0,3.07,2.92,2.6,2.6,0,0,0,2.65-1.71h1.69a4.24,4.24,0,0,1-4.34,3,4.52,4.52,0,0,1-4.67-4.83,4.46,4.46,0,0,1,4.67-4.79A4.3,4.3,0,0,1,172.51,231.81Zm-1.62-.32a2.76,2.76,0,0,0-3-2.82,2.9,2.9,0,0,0-3,2.82Zm4.18,3.33a1.06,1.06,0,1,0,0,2.11,1.06,1.06,0,0,0,0-2.11Zm3.62,0a1.06,1.06,0,1,0,1,1.06A1,1,0,0,0,178.69,234.82Zm3.61,0a1.06,1.06,0,1,0,0,2.11,1.06,1.06,0,0,0,0-2.11Z"/></svg>