<?xml version="1.0" encoding="utf-8"?>
<!-- Generator: Adobe Illustrator 23.0.2, SVG Export Plug-In . SVG Version: 6.00 Build 0)  -->
<svg version="1.1" id="weather-icon-fog" xmlns="http://www.w3.org/2000/svg" xmlns:xlink="http://www.w3.org/1999/xlink" x="0px"
	 y="0px" viewBox="0 0 64 64" style="enable-background:new 0 0 64 64;" xml:space="preserve">
<style type="text/css">
	.st0{fill:#FFFFFF;}
</style>
<g>
	<path class="st0" d="M47.3,20.2c0,0-5.3-5.9-6.6-11.2c0,0,0-0.1-0.1-0.2c-0.1-0.1-0.1-0.2-0.2-0.2c-0.2,0-0.3,0.4-0.3,0.4
		c-0.1,0.2-0.1,0.2-0.1,0.4c-1.5,5.1-6.5,10.8-6.5,10.8l0,0C32,22,31.1,24.4,31.1,27c0,5.5,4.2,10,9.3,10s9.3-4.5,9.3-10
		C49.7,24.4,48.8,22,47.3,20.2z"/>
	<path class="st0" d="M27.1,31.2c0,0-4.2-4.8-5.2-8.9c0,0,0-0.1-0.1-0.1c-0.1-0.1-0.1-0.1-0.2-0.1c-0.2,0-0.2,0.3-0.2,0.3
		c-0.1,0.1-0.1,0.2-0.1,0.3c-1.2,4-5.2,8.6-5.2,8.6c-1.2,1.4-1.9,3.3-1.9,5.4c0,4.4,3.3,8,7.5,8s7.5-3.6,7.5-8
		C29.1,34.5,28.4,32.6,27.1,31.2z"/>
	<path class="st0" d="M37.9,45.1c0,0-3.2-3.6-4-6.8c0,0,0-0.1-0.1-0.1c0-0.1-0.1-0.1-0.1-0.1c-0.1,0-0.2,0.2-0.2,0.2
		c0,0.1,0,0.1-0.1,0.2c-0.9,3.1-3.9,6.5-3.9,6.5c-0.9,1.1-1.5,2.5-1.5,4.1c0,3.3,2.5,6.1,5.6,6.1s5.6-2.7,5.6-6.1
		C39.5,47.6,38.9,46.2,37.9,45.1L37.9,45.1z"/>
</g>
</svg>
