<?xml version="1.0" encoding="utf-8"?>
<!-- Generator: Adobe Illustrator 23.0.2, SVG Export Plug-In . SVG Version: 6.00 Build 0)  -->
<svg version="1.1" id="Layer_1" xmlns="http://www.w3.org/2000/svg" xmlns:xlink="http://www.w3.org/1999/xlink" x="0px" y="0px"
	 viewBox="0 0 235 180" style="enable-background:new 0 0 235 180;" xml:space="preserve">
<style type="text/css">
	.st0{fill:#FFFFFF;}
</style>
<title>ww-logo</title>
<path class="st0" d="M29.1,38.3c-2.1-2.2-2.1-5.6,0-7.8L57.3,2c2.1-2.1,5.5-2.2,7.6-0.1c0,0,0,0,0,0L65,2l22.7,23
	c0.9,0.8,2.3,0.8,3.1,0l0,0l22.7-23c2.1-2.1,5.5-2.2,7.6-0.1c0,0,0,0,0,0l0.1,0.1l22.7,23c0.9,0.8,2.2,0.8,3.1,0l0,0L170,2
	c2.1-2.1,5.5-2.2,7.6-0.1c0,0,0,0,0,0l0.1,0.1l14.1,14.2c2.1,2.2,2.1,5.6,0,7.8l-42.3,42.7c-2.1,2.1-5.5,2.2-7.7,0.1
	c0,0-0.1-0.1-0.1-0.1l-22.7-23c-0.9-0.8-2.2-0.8-3.1,0l0,0l-22.7,23c-2.1,2.1-5.5,2.2-7.6,0.1l-0.1-0.1l-28-28.2
	c-2.2-2.1-2.3-5.5-0.4-7.8c2-2.2,5.4-2.4,7.6-0.5c0.1,0.1,0.2,0.2,0.3,0.3l22.7,23c0.9,0.8,2.3,0.8,3.1,0l0,0l22.7-23
	c2.1-2.1,5.5-2.2,7.6-0.1c0,0,0,0,0,0l0.1,0.1l22.7,23c0.9,0.8,2.2,0.8,3.1,0l0,0l31.4-31.7c0.9-0.9,0.9-2.3,0-3.2l-3.2-3.2
	c-0.8-0.9-2.2-0.9-3.1-0.1c0,0,0,0,0,0l-0.1,0.1l-22.7,23c-2.1,2.1-5.5,2.2-7.7,0.1c0,0-0.1-0.1-0.1-0.1l-22.7-23
	c-0.8-0.8-2.2-0.9-3-0.1l-0.1,0.1l-22.7,23c-2.1,2.1-5.5,2.2-7.6,0.1l-0.1-0.1l-22.7-23c-0.8-0.8-2.2-0.9-3-0.1l-0.1,0.1L42.3,32.8
	c-0.9,0.9-0.9,2.3,0,3.2l45.4,45.9c0.8,0.8,2.2,0.8,3,0h0.1l22.7-23c2.1-2.1,5.5-2.2,7.6-0.1c0,0,0,0,0,0c0,0,0.1,0.1,0.1,0.1
	l22.7,23c0.8,0.8,2.2,0.8,3,0.1l0.1-0.1l51-51.4c2.1-2.1,5.5-2.2,7.6-0.1c0,0,0,0,0,0l0.1,0.1c2.1,2.2,2.1,5.6,0,7.8l-56.3,56.9
	c-2.1,2.1-5.5,2.2-7.7,0.1c0,0-0.1-0.1-0.1-0.1l-22.7-23c-0.9-0.8-2.2-0.8-3.1,0l0,0l-22.7,23c-2.1,2.1-5.5,2.2-7.6,0.1l-0.1-0.1
	L29.1,38.3z M195.2,147.7v-23.9h-7.4v23.9H195.2z M46.7,126.6v-2.5H34.3v23.6h12.5v-2.5h-9.5V137h8.5v-2.5h-8.5v-7.9L46.7,126.6z
	 M70,147.7h-3.1l-1.9-5.3H55l-1.9,5.2h-3.2l8.4-23.4h3.5L70,147.7z M64.1,139.9l-4.2-11.9l-4.1,11.9L64.1,139.9z M9.8,147.7l5.6-19
	l5.4,19h3.4l6.7-23.5h-3.2L22.6,144l-5.3-19.9h-3.4l-5.6,20l-5-20H0l6.5,23.5L9.8,147.7z M235,129.8v-6h-15.7v23.9H235v-6h-8.3v-3.3
	h7.3v-5.6h-7.3v-2.9L235,129.8z M185.1,123.8h-7.9l-2.1,15.1l-3.2-15h-8.1l-3.2,15l-2.1-15h-8l5.4,23.9h9.2l2.7-13.6l2.7,13.6h9.2
	L185.1,123.8z M94.8,137h11.8v10.7h3v-23.5h-3v10.3H94.8v-10.3h-3v23.5h3V137z M138.5,138.1h-3.6v9.6h-3v-23.5h7.5
	c5.5,0,8.1,3.1,8.1,6.9c0.1,3.3-2.2,6.2-5.5,6.8l5.8,9.9h-3.7L138.5,138.1z M134.8,135.6h4.5c3.4,0,4.9-1.9,4.9-4.5
	c0-2.6-1.5-4.4-4.9-4.4h-4.4L134.8,135.6z M127.2,145.1h-9.4V137h8.5v-2.5h-8.5v-7.9h9.5v-2.5h-12.5v23.6h12.5L127.2,145.1z
	 M197.8,130.7c-0.1,8.2,11,7,11,10.2c0,0.8-0.7,1.2-1.4,1.2c-0.7,0-1.7-0.3-1.8-2.1h-7.8c0.3,5.4,4.6,7.9,9.9,7.9c5.7,0,9-3.2,9-7.6
	c0-7.4-10.9-6.9-10.9-9.9c0-0.8,0.5-1.2,1.1-1.2c0.8,0,1.6,0.4,1.6,1.9h8c-0.2-5-3.9-7.7-9.6-7.7
	C201.8,123.4,197.8,125.9,197.8,130.7L197.8,130.7z M81.7,147.6v-21H88v-2.5H72.3v2.5h6.4v21L81.7,147.6z"/>
<path class="st0" d="M13.8,165h7.7v1.5h-5.9v4.7h5.4v1.5h-5.4v6.4h-1.8V165z"/>
<path class="st0" d="M36.4,171.9c0,4.9-3,7.4-6.6,7.4s-6.4-2.9-6.4-7.2c0-4.5,2.8-7.4,6.6-7.4S36.4,167.7,36.4,171.9z M25.3,172.2
	c0,3,1.7,5.7,4.6,5.7s4.6-2.7,4.6-5.9c0-2.8-1.5-5.8-4.6-5.8S25.3,169.1,25.3,172.2L25.3,172.2z"/>
<path class="st0" d="M38.7,165.2c1.2-0.2,2.3-0.3,3.5-0.3c2,0,3.3,0.3,4.1,1.1c0.7,0.7,1.2,1.7,1.1,2.7c0,1.7-1.1,3.1-2.7,3.6v0.1
	c1.2,0.5,2,1.6,2.1,2.8c0.3,1.3,0.6,2.6,1.1,3.9h-1.9c-0.4-1.1-0.8-2.2-1-3.4c-0.4-2-1.2-2.7-2.9-2.7h-1.7v6.1h-1.9V165.2z
	 M40.6,171.7h1.9c2,0,3.2-1.1,3.2-2.7c0-1.8-1.3-2.6-3.3-2.6c-0.6,0-1.2,0-1.8,0.2L40.6,171.7z"/>
<path class="st0" d="M56.2,179.2L52.6,165h1.9l1.7,7.1c0.4,1.8,0.8,3.5,1.1,4.9l0,0c0.2-1.4,0.7-3.1,1.2-4.9l1.9-7.1h2l1.7,7.2
	c0.4,1.7,0.8,3.4,1,4.8l0,0c0.3-1.5,0.7-3.1,1.1-4.9l1.9-7.1H70l-4,14.1h-1.9l-1.8-7.3c-0.4-1.5-0.7-3.1-0.9-4.6l0,0
	c-0.3,1.6-0.7,3.1-1.1,4.6l-2,7.3H56.2z"/>
<path class="st0" d="M79.3,172.5h-5.6v5.1h6.2v1.5h-8.1V165h7.7v1.5h-5.8v4.5h5.6V172.5z"/>
<path class="st0" d="M84.6,174.7l-1.5,4.4h-1.9l4.9-14.1h2.2l4.9,14.1h-2l-1.5-4.4H84.6z M89.3,173.3l-1.4-4
	c-0.3-0.9-0.5-1.8-0.7-2.6l0,0c-0.2,0.8-0.5,1.7-0.7,2.6l-1.4,4H89.3z"/>
<path class="st0" d="M96.3,166.6H92V165h10.6v1.6h-4.4v12.6h-1.9V166.6z"/>
<path class="st0" d="M106,165v5.9h6.9V165h1.9v14.1h-1.9v-6.6H106v6.6h-1.8V165H106z"/>
<path class="st0" d="M125.4,172.5h-5.6v5.1h6.2v1.5h-8.1V165h7.7v1.5h-5.9v4.5h5.6L125.4,172.5z"/>
<path class="st0" d="M128.4,165.2c1.2-0.2,2.3-0.3,3.5-0.3c2,0,3.2,0.3,4.1,1.1c0.7,0.7,1.2,1.7,1.1,2.7c0,1.7-1.1,3.1-2.7,3.6v0.1
	c1.2,0.5,2,1.6,2.1,2.9c0.2,1.3,0.6,2.6,1.1,3.9h-1.9c-0.4-1.1-0.7-2.2-0.9-3.4c-0.4-2-1.2-2.7-2.9-2.7h-1.7v6.1h-1.8L128.4,165.2z
	 M130.3,171.7h1.9c2,0,3.2-1.1,3.2-2.7c0-1.8-1.3-2.6-3.3-2.6c-0.6,0-1.2,0-1.8,0.2V171.7z"/>
<path class="st0" d="M146.6,174.7l-1.5,4.4h-1.9l4.9-14.1h2.2l4.9,14.1h-2l-1.5-4.4H146.6z M151.3,173.3l-1.4-4
	c-0.3-0.9-0.5-1.8-0.7-2.6l0,0c-0.2,0.8-0.4,1.7-0.7,2.6l-1.4,4.1L151.3,173.3z"/>
<path class="st0" d="M157.3,165.2c1.3-0.2,2.6-0.3,3.9-0.3c2.7,0,4.5,0.6,5.8,1.8c1.4,1.3,2.1,3.2,2,5.1c0.1,2-0.6,4-2,5.5
	c-1.3,1.3-3.5,2-6.3,2c-1.1,0-2.2,0-3.3-0.2L157.3,165.2z M159.1,177.7c0.6,0.1,1.2,0.1,1.9,0.1c3.9,0,6.1-2.2,6.1-6
	c0-3.3-1.9-5.5-5.8-5.5c-0.7,0-1.5,0.1-2.2,0.2L159.1,177.7z"/>
<path class="st0" d="M171.4,165.2c1.3-0.2,2.6-0.3,3.9-0.3c2.6,0,4.5,0.6,5.8,1.8c1.4,1.3,2.1,3.2,2,5.1c0.1,2-0.6,4-2,5.5
	c-1.3,1.3-3.5,2-6.3,2c-1.1,0-2.2,0-3.4-0.2L171.4,165.2z M173.3,177.7c0.6,0.1,1.2,0.1,1.9,0.1c3.9,0,6.1-2.2,6.1-6
	c0-3.3-1.9-5.5-5.8-5.5c-0.7,0-1.4,0-2.2,0.2L173.3,177.7z"/>
<path class="st0" d="M187.4,165v14.1h-1.8V165H187.4z"/>
<path class="st0" d="M200.6,178.7c-1.2,0.5-2.5,0.7-3.8,0.7c-4,0-7.1-2.5-7.1-7.1c-0.3-3.9,2.7-7.2,6.6-7.4c0.3,0,0.6,0,0.9,0
	c1.2,0,2.3,0.2,3.4,0.6l-0.4,1.5c-0.9-0.4-1.9-0.6-2.9-0.6c-3.4,0-5.6,2.1-5.6,5.8c0,3.5,2,5.7,5.5,5.7c1,0,2.1-0.2,3-0.6
	L200.6,178.7z"/>
<path class="st0" d="M206.2,166.6h-4.3V165h10.5v1.6h-4.4v12.6h-1.9L206.2,166.6z"/>
<path class="st0" d="M213.7,176.9c1,0.6,2.1,0.9,3.3,0.9c1.9,0,3-1,3-2.4s-0.8-2.1-2.7-2.8c-2.3-0.8-3.8-2-3.8-4
	c0-2.2,1.8-3.8,4.6-3.8c1.1,0,2.2,0.2,3.2,0.7l-0.5,1.5c-0.8-0.4-1.8-0.7-2.7-0.7c-1.9,0-2.7,1.2-2.7,2.1c0,1.3,0.9,2,2.8,2.7
	c2.4,0.9,3.6,2.1,3.6,4.2c0,2.1-1.6,4.1-5,4.1c-1.3,0-2.5-0.3-3.6-0.9L213.7,176.9z"/>
</svg>
